<svg width="201" height="67" viewBox="0 0 201 67" fill="none" xmlns="http://www.w3.org/2000/svg">
<g filter="url(#filter0_i)">
<path d="M0 0H201V67H9.43662V62.6494H4.71831V67H0V62.6494H4.71831V58.2987H0V0Z" fill="#18421A"/>
<path d="M38.1429 31.75V16H53.8929V31.75H49.3929V18.25H42.6429V31.75H38.1429ZM58.3929 31.75V29.5H56.1429V22.75H58.3929V20.5H69.6429V22.75H71.8929V27.25H60.6429V29.5H69.6429V31.75H58.3929ZM60.6429 25H67.3929V22.75H60.6429V25ZM89.8929 22.75V29.5H87.6429V31.75H78.6429V34H74.1429V20.5H78.6429V22.75H80.8929V25H78.6429V29.5H85.3929V22.75H80.8929V20.5H87.6429V22.75H89.8929ZM94.3929 31.75V29.5H92.1429V22.75H94.3929V20.5H105.643V22.75H107.893V27.25H96.6429V29.5H105.643V31.75H94.3929ZM96.6429 25H103.393V22.75H96.6429V25ZM123.643 16V18.25H112.393V16H123.643ZM114.643 27.25H116.893V29.5H114.643V31.75H110.143V20.5H114.643V27.25ZM125.893 20.5V31.75H121.393V25H119.143V22.75H121.393V20.5H125.893ZM116.893 25H119.143V27.25H116.893V25ZM134.893 31.75V22.75H130.393V20.5H143.893V22.75H139.393V31.75H134.893ZM150.643 27.25H152.893V29.5H150.643V31.75H146.143V20.5H150.643V27.25ZM161.893 20.5V31.75H157.393V25H155.143V22.75H157.393V20.5H161.893ZM152.893 25H155.143V27.25H152.893V25ZM47.1429 40.75H49.3929V43H51.6429V45.25H53.8929V49.75H49.3929V45.25H42.6429V49.75H38.1429V38.5H42.6429V43H47.1429V40.75ZM53.8929 38.5V40.75H49.3929V38.5H53.8929ZM76.3929 52V49.75H85.3929V47.5H76.3929V45.25H74.1429V38.5H78.6429V45.25H85.3929V38.5H89.8929V49.75H87.6429V52H76.3929ZM107.893 40.75V47.5H105.643V49.75H96.6429V52H92.1429V38.5H96.6429V40.75H98.8929V43H96.6429V47.5H103.393V40.75H98.8929V38.5H105.643V40.75H107.893ZM112.393 49.75V47.5H110.143V40.75H112.393V38.5H123.643V40.75H125.893V47.5H123.643V49.75H112.393ZM114.643 47.5H121.393V40.75H114.643V47.5ZM137.143 40.75H139.393V43H141.643V45.25H143.893V49.75H139.393V45.25H132.643V49.75H128.143V38.5H132.643V43H137.143V40.75ZM143.893 38.5V40.75H139.393V38.5H143.893ZM148.393 52V49.75H157.393V47.5H148.393V45.25H146.143V38.5H150.643V45.25H157.393V38.5H161.893V49.75H159.643V52H148.393Z" fill="white"/>
</g>
<defs>
<filter id="filter0_i" x="0" y="0" width="205" height="71" filterUnits="userSpaceOnUse" color-interpolation-filters="sRGB">
<feFlood flood-opacity="0" result="BackgroundImageFix"/>
<feBlend mode="normal" in="SourceGraphic" in2="BackgroundImageFix" result="shape"/>
<feColorMatrix in="SourceAlpha" type="matrix" values="0 0 0 0 0 0 0 0 0 0 0 0 0 0 0 0 0 0 127 0" result="hardAlpha"/>
<feOffset dx="4" dy="4"/>
<feGaussianBlur stdDeviation="2"/>
<feComposite in2="hardAlpha" operator="arithmetic" k2="-1" k3="1"/>
<feColorMatrix type="matrix" values="0 0 0 0 0.0941176 0 0 0 0 0.258824 0 0 0 0 0.101961 0 0 0 1 0"/>
<feBlend mode="normal" in2="shape" result="effect1_innerShadow"/>
</filter>
</defs>
</svg>
